<?xml version="1.0" encoding="UTF-8" standalone="no"?>
<!DOCTYPE svg PUBLIC "-//W3C//DTD SVG 1.1//EN"
 "http://www.w3.org/Graphics/SVG/1.1/DTD/svg11.dtd">
<!-- Generated by graphviz version 2.44.1 (20200629.0846)
 -->
<!-- Title: sorting::radix_sort::radix::radix_sort Pages: 1 -->
<svg width="325pt" height="88pt"
 viewBox="0.00 0.00 325.00 88.00" xmlns="http://www.w3.org/2000/svg" xmlns:xlink="http://www.w3.org/1999/xlink">
<g id="graph0" class="graph" transform="scale(1 1) rotate(0) translate(4 84)">
<title>sorting::radix_sort::radix::radix_sort</title>
<polygon fill="white" stroke="transparent" points="-4,4 -4,-84 321,-84 321,4 -4,4"/>
<!-- Node1 -->
<g id="node1" class="node">
<title>Node1</title>
<g id="a_node1"><a xlink:title="Function to sort vector digit by digit.">
<polygon fill="#bfbfbf" stroke="black" points="0,-24.5 0,-54.5 95,-54.5 95,-24.5 0,-24.5"/>
<text text-anchor="start" x="8" y="-42.5" font-family="Helvetica,sans-Serif" font-size="10.00">sorting::radix_sort</text>
<text text-anchor="middle" x="47.5" y="-31.5" font-family="Helvetica,sans-Serif" font-size="10.00">::radix::radix_sort</text>
</a>
</g>
</g>
<!-- Node2 -->
<g id="node2" class="node">
<title>Node2</title>
<g id="a_node2"><a xlink:href="../../d7/d31/classsorting_1_1radix__sort_1_1radix.html#a50f97f7539ab1c62f32d4c3ee2380430" target="_top" xlink:title="Function that returns the max element.">
<polygon fill="white" stroke="black" points="131,-49.5 131,-79.5 226,-79.5 226,-49.5 131,-49.5"/>
<text text-anchor="start" x="139" y="-67.5" font-family="Helvetica,sans-Serif" font-size="10.00">sorting::radix_sort</text>
<text text-anchor="middle" x="178.5" y="-56.5" font-family="Helvetica,sans-Serif" font-size="10.00">::radix::get_max</text>
</a>
</g>
</g>
<!-- Node1&#45;&gt;Node2 -->
<g id="edge1" class="edge">
<title>Node1&#45;&gt;Node2</title>
<path fill="none" stroke="midnightblue" d="M95.07,-48.53C103.48,-50.15 112.32,-51.87 120.97,-53.54"/>
<polygon fill="midnightblue" stroke="midnightblue" points="120.51,-57.02 131,-55.49 121.84,-50.15 120.51,-57.02"/>
</g>
<!-- Node4 -->
<g id="node4" class="node">
<title>Node4</title>
<g id="a_node4"><a xlink:href="../../d7/d31/classsorting_1_1radix__sort_1_1radix.html#a0b7e847382e94a720aed2b496f55bb93" target="_top" xlink:title="Function to sort vector according to current digit using stable sorting.">
<polygon fill="white" stroke="black" points="131,-0.5 131,-30.5 226,-30.5 226,-0.5 131,-0.5"/>
<text text-anchor="start" x="139" y="-18.5" font-family="Helvetica,sans-Serif" font-size="10.00">sorting::radix_sort</text>
<text text-anchor="middle" x="178.5" y="-7.5" font-family="Helvetica,sans-Serif" font-size="10.00">::radix::step_ith</text>
</a>
</g>
</g>
<!-- Node1&#45;&gt;Node4 -->
<g id="edge3" class="edge">
<title>Node1&#45;&gt;Node4</title>
<path fill="none" stroke="midnightblue" d="M95.07,-30.84C103.48,-29.27 112.32,-27.63 120.97,-26.02"/>
<polygon fill="midnightblue" stroke="midnightblue" points="121.81,-29.42 131,-24.15 120.52,-22.54 121.81,-29.42"/>
</g>
<!-- Node3 -->
<g id="node3" class="node">
<title>Node3</title>
<g id="a_node3"><a target="_blank" xlink:href="http://en.cppreference.com/w/cpp/algorithm/max.html#" target="_top" xlink:title=" ">
<polygon fill="white" stroke="black" points="262,-55 262,-74 317,-74 317,-55 262,-55"/>
<text text-anchor="middle" x="289.5" y="-62" font-family="Helvetica,sans-Serif" font-size="10.00">std::max</text>
</a>
</g>
</g>
<!-- Node2&#45;&gt;Node3 -->
<g id="edge2" class="edge">
<title>Node2&#45;&gt;Node3</title>
<path fill="none" stroke="midnightblue" d="M226.04,-64.5C234.67,-64.5 243.56,-64.5 251.84,-64.5"/>
<polygon fill="midnightblue" stroke="midnightblue" points="251.93,-68 261.93,-64.5 251.93,-61 251.93,-68"/>
</g>
</g>
</svg>
