<?xml version="1.0" encoding="UTF-8" standalone="no"?>
<!DOCTYPE svg PUBLIC "-//W3C//DTD SVG 1.1//EN"
 "http://www.w3.org/Graphics/SVG/1.1/DTD/svg11.dtd">
<!-- Generated by graphviz version 2.44.1 (20200629.0846)
 -->
<!-- Title: main Pages: 1 -->
<svg width="326pt" height="170pt"
 viewBox="0.00 0.00 326.00 170.00" xmlns="http://www.w3.org/2000/svg" xmlns:xlink="http://www.w3.org/1999/xlink">
<g id="graph0" class="graph" transform="scale(1 1) rotate(0) translate(4 166)">
<title>main</title>
<polygon fill="white" stroke="transparent" points="-4,4 -4,-166 322,-166 322,4 -4,4"/>
<!-- Node1 -->
<g id="node1" class="node">
<title>Node1</title>
<g id="a_node1"><a xlink:title="Main function.">
<polygon fill="#bfbfbf" stroke="black" points="0,-76.5 0,-95.5 38,-95.5 38,-76.5 0,-76.5"/>
<text text-anchor="middle" x="19" y="-83.5" font-family="Helvetica,sans-Serif" font-size="10.00">main</text>
</a>
</g>
</g>
<!-- Node2 -->
<g id="node2" class="node">
<title>Node2</title>
<g id="a_node2"><a target="_blank" xlink:href="http://en.cppreference.com/w/cpp/container/vector/begin.html#" target="_top" xlink:title=" ">
<polygon fill="white" stroke="black" points="226,-142.5 226,-161.5 318,-161.5 318,-142.5 226,-142.5"/>
<text text-anchor="middle" x="272" y="-149.5" font-family="Helvetica,sans-Serif" font-size="10.00">std::vector::begin</text>
</a>
</g>
</g>
<!-- Node1&#45;&gt;Node2 -->
<g id="edge1" class="edge">
<title>Node1&#45;&gt;Node2</title>
<path fill="none" stroke="midnightblue" d="M31.18,-95.61C41.57,-103.98 57.82,-115.73 74,-122 119.7,-139.7 175.15,-147 215.56,-149.99"/>
<polygon fill="midnightblue" stroke="midnightblue" points="215.55,-153.49 225.76,-150.67 216.02,-146.51 215.55,-153.49"/>
</g>
<!-- Node3 -->
<g id="node3" class="node">
<title>Node3</title>
<g id="a_node3"><a target="_blank" xlink:href="http://en.cppreference.com/w/cpp/container/vector/end.html#" target="_top" xlink:title=" ">
<polygon fill="white" stroke="black" points="229.5,-95.5 229.5,-114.5 314.5,-114.5 314.5,-95.5 229.5,-95.5"/>
<text text-anchor="middle" x="272" y="-102.5" font-family="Helvetica,sans-Serif" font-size="10.00">std::vector::end</text>
</a>
</g>
</g>
<!-- Node1&#45;&gt;Node3 -->
<g id="edge2" class="edge">
<title>Node1&#45;&gt;Node3</title>
<path fill="none" stroke="midnightblue" d="M38.08,-94.09C48.38,-98.26 61.66,-102.89 74,-105 122.69,-113.32 179.14,-112.25 219.1,-109.74"/>
<polygon fill="midnightblue" stroke="midnightblue" points="219.41,-113.23 229.15,-109.06 218.93,-106.24 219.41,-113.23"/>
</g>
<!-- Node4 -->
<g id="node4" class="node">
<title>Node4</title>
<g id="a_node4"><a target="_blank" xlink:href="http://en.cppreference.com/w/cpp/algorithm/is_sorted.html#" target="_top" xlink:title=" ">
<polygon fill="white" stroke="black" points="234,-57.5 234,-76.5 310,-76.5 310,-57.5 234,-57.5"/>
<text text-anchor="middle" x="272" y="-64.5" font-family="Helvetica,sans-Serif" font-size="10.00">std::is_sorted</text>
</a>
</g>
</g>
<!-- Node1&#45;&gt;Node4 -->
<g id="edge3" class="edge">
<title>Node1&#45;&gt;Node4</title>
<path fill="none" stroke="midnightblue" d="M38.08,-77.91C48.38,-73.74 61.66,-69.11 74,-67 124.55,-58.37 183.47,-59.85 223.61,-62.55"/>
<polygon fill="midnightblue" stroke="midnightblue" points="223.42,-66.05 233.65,-63.28 223.93,-59.07 223.42,-66.05"/>
</g>
<!-- Node5 -->
<g id="node5" class="node">
<title>Node5</title>
<g id="a_node5"><a target="_blank" xlink:href="http://en.cppreference.com/w/cpp/container/vector/push_back.html#" target="_top" xlink:title=" ">
<polygon fill="white" stroke="black" points="74,-0.5 74,-19.5 190,-19.5 190,-0.5 74,-0.5"/>
<text text-anchor="middle" x="132" y="-7.5" font-family="Helvetica,sans-Serif" font-size="10.00">std::vector::push_back</text>
</a>
</g>
</g>
<!-- Node1&#45;&gt;Node5 -->
<g id="edge4" class="edge">
<title>Node1&#45;&gt;Node5</title>
<path fill="none" stroke="midnightblue" d="M27.93,-76.46C37.77,-65.11 55.52,-46.17 74,-34 79.9,-30.11 86.54,-26.63 93.14,-23.62"/>
<polygon fill="midnightblue" stroke="midnightblue" points="94.89,-26.68 102.71,-19.53 92.13,-20.24 94.89,-26.68"/>
</g>
<!-- Node6 -->
<g id="node6" class="node">
<title>Node6</title>
<g id="a_node6"><a xlink:href="../../d8/d61/radix__sort2_8cpp.html#a483bb8ccf42aaf7375a83e91490eda1e" target="_top" xlink:title=" ">
<polygon fill="white" stroke="black" points="113,-76.5 113,-95.5 151,-95.5 151,-76.5 113,-76.5"/>
<text text-anchor="middle" x="132" y="-83.5" font-family="Helvetica,sans-Serif" font-size="10.00">tests</text>
</a>
</g>
</g>
<!-- Node1&#45;&gt;Node6 -->
<g id="edge5" class="edge">
<title>Node1&#45;&gt;Node6</title>
<path fill="none" stroke="midnightblue" d="M38.33,-86C55.76,-86 82.25,-86 102.45,-86"/>
<polygon fill="midnightblue" stroke="midnightblue" points="102.64,-89.5 112.64,-86 102.64,-82.5 102.64,-89.5"/>
</g>
<!-- Node6&#45;&gt;Node2 -->
<g id="edge6" class="edge">
<title>Node6&#45;&gt;Node2</title>
<path fill="none" stroke="midnightblue" d="M151.04,-94.63C174.05,-105.63 214.13,-124.8 241.58,-137.93"/>
<polygon fill="midnightblue" stroke="midnightblue" points="240.18,-141.14 250.71,-142.3 243.2,-134.82 240.18,-141.14"/>
</g>
<!-- Node6&#45;&gt;Node3 -->
<g id="edge7" class="edge">
<title>Node6&#45;&gt;Node3</title>
<path fill="none" stroke="midnightblue" d="M151.04,-88.48C168.37,-90.87 195.37,-94.59 219.38,-97.89"/>
<polygon fill="midnightblue" stroke="midnightblue" points="219.06,-101.38 229.45,-99.28 220.02,-94.45 219.06,-101.38"/>
</g>
<!-- Node6&#45;&gt;Node4 -->
<g id="edge8" class="edge">
<title>Node6&#45;&gt;Node4</title>
<path fill="none" stroke="midnightblue" d="M151.04,-83.52C169.41,-80.99 198.65,-76.96 223.67,-73.52"/>
<polygon fill="midnightblue" stroke="midnightblue" points="224.3,-76.96 233.73,-72.13 223.35,-70.03 224.3,-76.96"/>
</g>
</g>
</svg>
