<?xml version="1.0" encoding="UTF-8" standalone="no"?>
<!DOCTYPE svg PUBLIC "-//W3C//DTD SVG 1.1//EN"
 "http://www.w3.org/Graphics/SVG/1.1/DTD/svg11.dtd">
<!-- Generated by graphviz version 2.44.1 (20200629.0846)
 -->
<!-- Title: main Pages: 1 -->
<svg width="551pt" height="164pt"
 viewBox="0.00 0.00 551.00 163.86" xmlns="http://www.w3.org/2000/svg" xmlns:xlink="http://www.w3.org/1999/xlink">
<g id="graph0" class="graph" transform="scale(1 1) rotate(0) translate(4 159.86)">
<title>main</title>
<polygon fill="white" stroke="transparent" points="-4,4 -4,-159.86 547,-159.86 547,4 -4,4"/>
<!-- Node1 -->
<g id="node1" class="node">
<title>Node1</title>
<g id="a_node1"><a xlink:title="Main function.">
<polygon fill="#bfbfbf" stroke="black" points="0,-60.36 0,-79.36 38,-79.36 38,-60.36 0,-60.36"/>
<text text-anchor="middle" x="19" y="-67.36" font-family="Helvetica,sans-Serif" font-size="10.00">main</text>
</a>
</g>
</g>
<!-- Node2 -->
<g id="node2" class="node">
<title>Node2</title>
<g id="a_node2"><a target="_blank" xlink:href="http://en.cppreference.com/w/cpp/container/vector/push_back.html#" target="_top" xlink:title=" ">
<polygon fill="white" stroke="black" points="74,-136.36 74,-155.36 190,-155.36 190,-136.36 74,-136.36"/>
<text text-anchor="middle" x="132" y="-143.36" font-family="Helvetica,sans-Serif" font-size="10.00">std::vector::push_back</text>
</a>
</g>
</g>
<!-- Node1&#45;&gt;Node2 -->
<g id="edge1" class="edge">
<title>Node1&#45;&gt;Node2</title>
<path fill="none" stroke="midnightblue" d="M27.93,-79.41C37.77,-90.76 55.52,-109.69 74,-121.86 79.9,-125.75 86.54,-129.23 93.14,-132.25"/>
<polygon fill="midnightblue" stroke="midnightblue" points="92.13,-135.62 102.71,-136.34 94.89,-129.19 92.13,-135.62"/>
</g>
<!-- Node3 -->
<g id="node3" class="node">
<title>Node3</title>
<g id="a_node3"><a xlink:href="../../d7/d31/classsorting_1_1radix__sort_1_1radix.html#a71fa9ada928c6cb367db0ee444dda56d" target="_top" xlink:title="Function to sort vector digit by digit.">
<polygon fill="white" stroke="black" points="226,-59.86 226,-89.86 321,-89.86 321,-59.86 226,-59.86"/>
<text text-anchor="start" x="234" y="-77.86" font-family="Helvetica,sans-Serif" font-size="10.00">sorting::radix_sort</text>
<text text-anchor="middle" x="273.5" y="-66.86" font-family="Helvetica,sans-Serif" font-size="10.00">::radix::radix_sort</text>
</a>
</g>
</g>
<!-- Node1&#45;&gt;Node3 -->
<g id="edge2" class="edge">
<title>Node1&#45;&gt;Node3</title>
<path fill="none" stroke="midnightblue" d="M38.08,-77.96C48.38,-82.12 61.66,-86.76 74,-88.86 121.3,-96.94 175.72,-92.13 215.6,-86.04"/>
<polygon fill="midnightblue" stroke="midnightblue" points="216.34,-89.47 225.66,-84.43 215.24,-82.56 216.34,-89.47"/>
</g>
<!-- Node7 -->
<g id="node7" class="node">
<title>Node7</title>
<g id="a_node7"><a xlink:href="../../d7/d31/classsorting_1_1radix__sort_1_1radix.html#a9e19c50592416123bfd0410dc38d1aee" target="_top" xlink:title="Function that print the elements of vector.">
<polygon fill="white" stroke="black" points="226,-10.86 226,-40.86 321,-40.86 321,-10.86 226,-10.86"/>
<text text-anchor="start" x="234" y="-28.86" font-family="Helvetica,sans-Serif" font-size="10.00">sorting::radix_sort</text>
<text text-anchor="middle" x="273.5" y="-17.86" font-family="Helvetica,sans-Serif" font-size="10.00">::radix::show</text>
</a>
</g>
</g>
<!-- Node1&#45;&gt;Node7 -->
<g id="edge6" class="edge">
<title>Node1&#45;&gt;Node7</title>
<path fill="none" stroke="midnightblue" d="M25.49,-60.34C33.92,-46.8 51.46,-22.56 74,-12.86 118.99,6.49 175.04,0.41 216.1,-8.86"/>
<polygon fill="midnightblue" stroke="midnightblue" points="215.4,-12.29 225.94,-11.21 217.02,-5.48 215.4,-12.29"/>
</g>
<!-- Node8 -->
<g id="node8" class="node">
<title>Node8</title>
<g id="a_node8"><a xlink:href="../../d8/d61/radix__sort2_8cpp.html#ae7880ce913f3058a35ff106d5be9e243" target="_top" xlink:title=" ">
<polygon fill="white" stroke="black" points="113,-22.36 113,-41.36 151,-41.36 151,-22.36 113,-22.36"/>
<text text-anchor="middle" x="132" y="-29.36" font-family="Helvetica,sans-Serif" font-size="10.00">test1</text>
</a>
</g>
</g>
<!-- Node1&#45;&gt;Node8 -->
<g id="edge7" class="edge">
<title>Node1&#45;&gt;Node8</title>
<path fill="none" stroke="midnightblue" d="M38.47,-63.28C48.89,-59.59 62.15,-54.92 74,-50.86 83.49,-47.61 93.9,-44.12 103.2,-41.03"/>
<polygon fill="midnightblue" stroke="midnightblue" points="104.36,-44.33 112.75,-37.86 102.15,-37.69 104.36,-44.33"/>
</g>
<!-- Node9 -->
<g id="node9" class="node">
<title>Node9</title>
<g id="a_node9"><a xlink:href="../../d8/d61/radix__sort2_8cpp.html#a45d94ead4cf4e1ff9f87c38bc99f59ae" target="_top" xlink:title=" ">
<polygon fill="white" stroke="black" points="113,-60.36 113,-79.36 151,-79.36 151,-60.36 113,-60.36"/>
<text text-anchor="middle" x="132" y="-67.36" font-family="Helvetica,sans-Serif" font-size="10.00">test2</text>
</a>
</g>
</g>
<!-- Node1&#45;&gt;Node9 -->
<g id="edge10" class="edge">
<title>Node1&#45;&gt;Node9</title>
<path fill="none" stroke="midnightblue" d="M38.33,-69.86C55.76,-69.86 82.25,-69.86 102.45,-69.86"/>
<polygon fill="midnightblue" stroke="midnightblue" points="102.64,-73.36 112.64,-69.86 102.64,-66.36 102.64,-73.36"/>
</g>
<!-- Node4 -->
<g id="node4" class="node">
<title>Node4</title>
<g id="a_node4"><a xlink:href="../../d7/d31/classsorting_1_1radix__sort_1_1radix.html#a50f97f7539ab1c62f32d4c3ee2380430" target="_top" xlink:title="Function that returns the max element.">
<polygon fill="white" stroke="black" points="357,-83.86 357,-113.86 452,-113.86 452,-83.86 357,-83.86"/>
<text text-anchor="start" x="365" y="-101.86" font-family="Helvetica,sans-Serif" font-size="10.00">sorting::radix_sort</text>
<text text-anchor="middle" x="404.5" y="-90.86" font-family="Helvetica,sans-Serif" font-size="10.00">::radix::get_max</text>
</a>
</g>
</g>
<!-- Node3&#45;&gt;Node4 -->
<g id="edge3" class="edge">
<title>Node3&#45;&gt;Node4</title>
<path fill="none" stroke="midnightblue" d="M321.07,-83.53C329.48,-85.09 338.32,-86.74 346.97,-88.35"/>
<polygon fill="midnightblue" stroke="midnightblue" points="346.52,-91.82 357,-90.21 347.81,-84.94 346.52,-91.82"/>
</g>
<!-- Node6 -->
<g id="node6" class="node">
<title>Node6</title>
<g id="a_node6"><a xlink:href="../../d7/d31/classsorting_1_1radix__sort_1_1radix.html#a0b7e847382e94a720aed2b496f55bb93" target="_top" xlink:title="Function to sort vector according to current digit using stable sorting.">
<polygon fill="white" stroke="black" points="357,-34.86 357,-64.86 452,-64.86 452,-34.86 357,-34.86"/>
<text text-anchor="start" x="365" y="-52.86" font-family="Helvetica,sans-Serif" font-size="10.00">sorting::radix_sort</text>
<text text-anchor="middle" x="404.5" y="-41.86" font-family="Helvetica,sans-Serif" font-size="10.00">::radix::step_ith</text>
</a>
</g>
</g>
<!-- Node3&#45;&gt;Node6 -->
<g id="edge5" class="edge">
<title>Node3&#45;&gt;Node6</title>
<path fill="none" stroke="midnightblue" d="M321.07,-65.84C329.48,-64.21 338.32,-62.5 346.97,-60.82"/>
<polygon fill="midnightblue" stroke="midnightblue" points="347.84,-64.22 357,-58.88 346.51,-57.34 347.84,-64.22"/>
</g>
<!-- Node5 -->
<g id="node5" class="node">
<title>Node5</title>
<g id="a_node5"><a target="_blank" xlink:href="http://en.cppreference.com/w/cpp/algorithm/max.html#" target="_top" xlink:title=" ">
<polygon fill="white" stroke="black" points="488,-89.36 488,-108.36 543,-108.36 543,-89.36 488,-89.36"/>
<text text-anchor="middle" x="515.5" y="-96.36" font-family="Helvetica,sans-Serif" font-size="10.00">std::max</text>
</a>
</g>
</g>
<!-- Node4&#45;&gt;Node5 -->
<g id="edge4" class="edge">
<title>Node4&#45;&gt;Node5</title>
<path fill="none" stroke="midnightblue" d="M452.04,-98.86C460.67,-98.86 469.56,-98.86 477.84,-98.86"/>
<polygon fill="midnightblue" stroke="midnightblue" points="477.93,-102.36 487.93,-98.86 477.93,-95.36 477.93,-102.36"/>
</g>
<!-- Node8&#45;&gt;Node3 -->
<g id="edge8" class="edge">
<title>Node8&#45;&gt;Node3</title>
<path fill="none" stroke="midnightblue" d="M151.24,-37.49C167.72,-42.57 192.86,-50.32 215.99,-57.45"/>
<polygon fill="midnightblue" stroke="midnightblue" points="215.16,-60.85 225.75,-60.45 217.22,-54.16 215.16,-60.85"/>
</g>
<!-- Node8&#45;&gt;Node7 -->
<g id="edge9" class="edge">
<title>Node8&#45;&gt;Node7</title>
<path fill="none" stroke="midnightblue" d="M151.24,-31.08C167.64,-30.37 192.64,-29.3 215.68,-28.31"/>
<polygon fill="midnightblue" stroke="midnightblue" points="215.91,-31.8 225.75,-27.88 215.61,-24.81 215.91,-31.8"/>
</g>
<!-- Node9&#45;&gt;Node3 -->
<g id="edge11" class="edge">
<title>Node9&#45;&gt;Node3</title>
<path fill="none" stroke="midnightblue" d="M151.24,-70.52C167.64,-71.11 192.64,-72 215.68,-72.83"/>
<polygon fill="midnightblue" stroke="midnightblue" points="215.63,-76.33 225.75,-73.19 215.88,-69.33 215.63,-76.33"/>
</g>
<!-- Node9&#45;&gt;Node7 -->
<g id="edge12" class="edge">
<title>Node9&#45;&gt;Node7</title>
<path fill="none" stroke="midnightblue" d="M151.24,-64.11C167.72,-58.91 192.86,-50.98 215.99,-43.69"/>
<polygon fill="midnightblue" stroke="midnightblue" points="217.26,-46.96 225.75,-40.61 215.16,-40.28 217.26,-46.96"/>
</g>
</g>
</svg>
