<?xml version="1.0" encoding="UTF-8" standalone="no"?>
<!DOCTYPE svg PUBLIC "-//W3C//DTD SVG 1.1//EN"
 "http://www.w3.org/Graphics/SVG/1.1/DTD/svg11.dtd">
<!-- Generated by graphviz version 2.44.1 (20200629.0846)
 -->
<!-- Title: main Pages: 1 -->
<!--zoomable 164 -->
<svg id="main" version="1.1" xmlns="http://www.w3.org/2000/svg" xmlns:xlink="http://www.w3.org/1999/xlink" xml:space="preserve" onload="init(evt)">
<style type="text/css"><![CDATA[
.edge:hover path { stroke: red; }
.edge:hover polygon { stroke: red; fill: red; }
]]></style>
<script type="text/javascript"><![CDATA[
var edges = document.getElementsByTagName('g');
if (edges && edges.length) {
  for (var i=0;i<edges.length;i++) {
    if (edges[i].id.substr(0,4)=='edge') {
      edges[i].setAttribute('class','edge');
    }
  }
}
]]></script>
        <defs>
                <circle id="rim" cx="0" cy="0" r="7"/>
                <circle id="rim2" cx="0" cy="0" r="3.5"/>
                <g id="zoomPlus">
                        <use xlink:href="#rim" fill="#404040">
                                <set attributeName="fill" to="#808080" begin="zoomplus.mouseover" end="zoomplus.mouseout"/>
                        </use>
                        <path d="M-4,0h8M0,-4v8" fill="none" stroke="white" stroke-width="1.5" pointer-events="none"/>
                </g>
                <g id="zoomMin">
                        <use xlink:href="#rim" fill="#404040">
                                <set attributeName="fill" to="#808080" begin="zoomminus.mouseover" end="zoomminus.mouseout"/>
                        </use>
                        <path d="M-4,0h8" fill="none" stroke="white" stroke-width="1.5" pointer-events="none"/>
                </g>
                <g id="dirArrow">
                        <path fill="none" stroke="white" stroke-width="1.5" d="M0,-3.0v7 M-2.5,-0.5L0,-3.0L2.5,-0.5"/>
                </g>
               <g id="resetDef">
                       <use xlink:href="#rim2" fill="#404040">
                               <set attributeName="fill" to="#808080" begin="reset.mouseover" end="reset.mouseout"/>
                       </use>
               </g>
        </defs>

<script type="text/javascript">
var viewWidth = 579;
var viewHeight = 164;
var sectionId = 'dynsection-1';
</script>
<script xlink:href="../../svgpan.js"/>
<svg id="graph" class="graph">
<g id="viewport">
<title>main</title>
<polygon fill="white" stroke="transparent" points="-4,4 -4,-160.38 575,-160.38 575,4 -4,4"/>
<!-- Node1 -->
<g id="node1" class="node">
<title>Node1</title>
<g id="a_node1"><a xlink:title="Main function.">
<polygon fill="#bfbfbf" stroke="black" points="0,-60.88 0,-79.88 38,-79.88 38,-60.88 0,-60.88"/>
<text text-anchor="middle" x="19" y="-67.88" font-family="Helvetica,sans-Serif" font-size="10.00">main</text>
</a>
</g>
</g>
<!-- Node2 -->
<g id="node2" class="node">
<title>Node2</title>
<g id="a_node2"><a target="_blank" xlink:href="http://en.cppreference.com/w/cpp/container/vector/push_back.html#" target="_top" xlink:title=" ">
<polygon fill="white" stroke="black" points="74,-136.88 74,-155.88 190,-155.88 190,-136.88 74,-136.88"/>
<text text-anchor="middle" x="132" y="-143.88" font-family="Helvetica,sans-Serif" font-size="10.00">std::vector::push_back</text>
</a>
</g>
</g>
<!-- Node1&#45;&gt;Node2 -->
<g id="edge1" class="edge">
<title>Node1&#45;&gt;Node2</title>
<path fill="none" stroke="midnightblue" d="M27.93,-79.92C37.77,-91.27 55.52,-110.21 74,-122.38 79.9,-126.27 86.54,-129.75 93.14,-132.77"/>
<polygon fill="midnightblue" stroke="midnightblue" points="92.13,-136.14 102.71,-136.86 94.89,-129.71 92.13,-136.14"/>
</g>
<!-- Node3 -->
<g id="node3" class="node">
<title>Node3</title>
<g id="a_node3"><a xlink:href="../../d4/d1d/classsort_1_1radix__sort_1_1radix.html#a5cb227ae7b5a279ce416380d2a877606" target="_top" xlink:title="Function to sort vector digit by digit.">
<polygon fill="white" stroke="black" points="226,-60.38 226,-90.38 335,-90.38 335,-60.38 226,-60.38"/>
<text text-anchor="start" x="234" y="-78.38" font-family="Helvetica,sans-Serif" font-size="10.00">sort::radix_sort::radix</text>
<text text-anchor="middle" x="280.5" y="-67.38" font-family="Helvetica,sans-Serif" font-size="10.00">::radix_sort</text>
</a>
</g>
</g>
<!-- Node1&#45;&gt;Node3 -->
<g id="edge2" class="edge">
<title>Node1&#45;&gt;Node3</title>
<path fill="none" stroke="midnightblue" d="M38.08,-78.48C48.38,-82.64 61.66,-87.28 74,-89.38 121.12,-97.43 175.06,-93.26 215.85,-87.43"/>
<polygon fill="midnightblue" stroke="midnightblue" points="216.56,-90.86 225.93,-85.92 215.52,-83.94 216.56,-90.86"/>
</g>
<!-- Node7 -->
<g id="node7" class="node">
<title>Node7</title>
<g id="a_node7"><a xlink:href="../../d4/d1d/classsort_1_1radix__sort_1_1radix.html#af71010ae963a8d419cea9d78df82115b" target="_top" xlink:title="Function that print the elements of vector.">
<polygon fill="white" stroke="black" points="226,-11.38 226,-41.38 335,-41.38 335,-11.38 226,-11.38"/>
<text text-anchor="start" x="234" y="-29.38" font-family="Helvetica,sans-Serif" font-size="10.00">sort::radix_sort::radix</text>
<text text-anchor="middle" x="280.5" y="-18.38" font-family="Helvetica,sans-Serif" font-size="10.00">::show</text>
</a>
</g>
</g>
<!-- Node1&#45;&gt;Node7 -->
<g id="edge6" class="edge">
<title>Node1&#45;&gt;Node7</title>
<path fill="none" stroke="midnightblue" d="M25.49,-60.86C33.92,-47.32 51.46,-23.08 74,-13.38 120.67,6.69 178.85,0.47 221.38,-9.03"/>
<polygon fill="midnightblue" stroke="midnightblue" points="220.76,-12.48 231.29,-11.37 222.36,-5.67 220.76,-12.48"/>
</g>
<!-- Node8 -->
<g id="node8" class="node">
<title>Node8</title>
<g id="a_node8"><a xlink:href="../../d8/d61/radix__sort2_8cpp.html#ae7880ce913f3058a35ff106d5be9e243" target="_top" xlink:title=" ">
<polygon fill="white" stroke="black" points="113,-22.88 113,-41.88 151,-41.88 151,-22.88 113,-22.88"/>
<text text-anchor="middle" x="132" y="-29.88" font-family="Helvetica,sans-Serif" font-size="10.00">test1</text>
</a>
</g>
</g>
<!-- Node1&#45;&gt;Node8 -->
<g id="edge7" class="edge">
<title>Node1&#45;&gt;Node8</title>
<path fill="none" stroke="midnightblue" d="M38.47,-63.8C48.89,-60.11 62.15,-55.44 74,-51.38 83.49,-48.13 93.9,-44.64 103.2,-41.55"/>
<polygon fill="midnightblue" stroke="midnightblue" points="104.36,-44.85 112.75,-38.38 102.15,-38.21 104.36,-44.85"/>
</g>
<!-- Node9 -->
<g id="node9" class="node">
<title>Node9</title>
<g id="a_node9"><a xlink:href="../../d8/d61/radix__sort2_8cpp.html#a0283886819c7c140a023582b7269e2d0" target="_top" xlink:title=" ">
<polygon fill="white" stroke="black" points="113,-60.88 113,-79.88 151,-79.88 151,-60.88 113,-60.88"/>
<text text-anchor="middle" x="132" y="-67.88" font-family="Helvetica,sans-Serif" font-size="10.00">test2</text>
</a>
</g>
</g>
<!-- Node1&#45;&gt;Node9 -->
<g id="edge10" class="edge">
<title>Node1&#45;&gt;Node9</title>
<path fill="none" stroke="midnightblue" d="M38.33,-70.38C55.76,-70.38 82.25,-70.38 102.45,-70.38"/>
<polygon fill="midnightblue" stroke="midnightblue" points="102.64,-73.88 112.64,-70.38 102.64,-66.88 102.64,-73.88"/>
</g>
<!-- Node4 -->
<g id="node4" class="node">
<title>Node4</title>
<g id="a_node4"><a xlink:href="../../d4/d1d/classsort_1_1radix__sort_1_1radix.html#ae5cf8da72ded44713d7eaed0f1ba5a0e" target="_top" xlink:title="Function that returns the max element.">
<polygon fill="white" stroke="black" points="371,-84.38 371,-114.38 480,-114.38 480,-84.38 371,-84.38"/>
<text text-anchor="start" x="379" y="-102.38" font-family="Helvetica,sans-Serif" font-size="10.00">sort::radix_sort::radix</text>
<text text-anchor="middle" x="425.5" y="-91.38" font-family="Helvetica,sans-Serif" font-size="10.00">::get_max</text>
</a>
</g>
</g>
<!-- Node3&#45;&gt;Node4 -->
<g id="edge3" class="edge">
<title>Node3&#45;&gt;Node4</title>
<path fill="none" stroke="midnightblue" d="M335.15,-84.39C343.47,-85.78 352.13,-87.24 360.65,-88.67"/>
<polygon fill="midnightblue" stroke="midnightblue" points="360.1,-92.12 370.54,-90.33 361.26,-85.22 360.1,-92.12"/>
</g>
<!-- Node6 -->
<g id="node6" class="node">
<title>Node6</title>
<g id="a_node6"><a xlink:href="../../d4/d1d/classsort_1_1radix__sort_1_1radix.html#a1810ce4395b59bce1dc83b22357e5119" target="_top" xlink:title="Function to sort vector according to current digit using stable sorting.">
<polygon fill="white" stroke="black" points="371,-35.38 371,-65.38 480,-65.38 480,-35.38 371,-35.38"/>
<text text-anchor="start" x="379" y="-53.38" font-family="Helvetica,sans-Serif" font-size="10.00">sort::radix_sort::radix</text>
<text text-anchor="middle" x="425.5" y="-42.38" font-family="Helvetica,sans-Serif" font-size="10.00">::step_ith</text>
</a>
</g>
</g>
<!-- Node3&#45;&gt;Node6 -->
<g id="edge5" class="edge">
<title>Node3&#45;&gt;Node6</title>
<path fill="none" stroke="midnightblue" d="M335.15,-66C343.47,-64.55 352.13,-63.04 360.65,-61.55"/>
<polygon fill="midnightblue" stroke="midnightblue" points="361.3,-64.99 370.54,-59.82 360.09,-58.09 361.3,-64.99"/>
</g>
<!-- Node5 -->
<g id="node5" class="node">
<title>Node5</title>
<g id="a_node5"><a target="_blank" xlink:href="http://en.cppreference.com/w/cpp/algorithm/max.html#" target="_top" xlink:title=" ">
<polygon fill="white" stroke="black" points="516,-89.88 516,-108.88 571,-108.88 571,-89.88 516,-89.88"/>
<text text-anchor="middle" x="543.5" y="-96.88" font-family="Helvetica,sans-Serif" font-size="10.00">std::max</text>
</a>
</g>
</g>
<!-- Node4&#45;&gt;Node5 -->
<g id="edge4" class="edge">
<title>Node4&#45;&gt;Node5</title>
<path fill="none" stroke="midnightblue" d="M480.09,-99.38C488.85,-99.38 497.75,-99.38 505.98,-99.38"/>
<polygon fill="midnightblue" stroke="midnightblue" points="505.98,-102.88 515.98,-99.38 505.98,-95.88 505.98,-102.88"/>
</g>
<!-- Node8&#45;&gt;Node3 -->
<g id="edge8" class="edge">
<title>Node8&#45;&gt;Node3</title>
<path fill="none" stroke="midnightblue" d="M151.26,-37.74C168.11,-42.69 194.12,-50.32 218.32,-57.43"/>
<polygon fill="midnightblue" stroke="midnightblue" points="217.61,-60.86 228.19,-60.32 219.58,-54.15 217.61,-60.86"/>
</g>
<!-- Node8&#45;&gt;Node7 -->
<g id="edge9" class="edge">
<title>Node8&#45;&gt;Node7</title>
<path fill="none" stroke="midnightblue" d="M151.26,-31.64C167.49,-30.97 192.23,-29.96 215.65,-29"/>
<polygon fill="midnightblue" stroke="midnightblue" points="216.09,-32.48 225.93,-28.58 215.8,-25.49 216.09,-32.48"/>
</g>
<!-- Node9&#45;&gt;Node3 -->
<g id="edge11" class="edge">
<title>Node9&#45;&gt;Node3</title>
<path fill="none" stroke="midnightblue" d="M151.26,-71.01C167.49,-71.56 192.23,-72.4 215.65,-73.2"/>
<polygon fill="midnightblue" stroke="midnightblue" points="215.82,-76.71 225.93,-73.56 216.06,-69.72 215.82,-76.71"/>
</g>
<!-- Node9&#45;&gt;Node7 -->
<g id="edge12" class="edge">
<title>Node9&#45;&gt;Node7</title>
<path fill="none" stroke="midnightblue" d="M151.26,-64.9C168.46,-59.73 195.19,-51.71 219.81,-44.31"/>
<polygon fill="midnightblue" stroke="midnightblue" points="220.9,-47.64 229.47,-41.41 218.88,-40.93 220.9,-47.64"/>
</g>
</g>
</svg>
        <g id="navigator" transform="translate(0 0)" fill="#404254">
                <rect fill="#f2f5e9" fill-opacity="0.5" stroke="#606060" stroke-width=".5" x="0" y="0" width="60" height="60"/>
                <use id="zoomplus" xlink:href="#zoomPlus" x="17" y="9" onmousedown="handleZoom(evt,'in')"/>
                <use id="zoomminus" xlink:href="#zoomMin" x="42" y="9" onmousedown="handleZoom(evt,'out')"/>
                <use id="reset" xlink:href="#resetDef" x="30" y="36" onmousedown="handleReset()"/>
                <g id="arrowUp" xlink:href="#dirArrow" transform="translate(30 24)" onmousedown="handlePan(0,-1)">
                  <use xlink:href="#rim" fill="#404040">
                        <set attributeName="fill" to="#808080" begin="arrowUp.mouseover" end="arrowUp.mouseout"/>
                  </use>
                  <path fill="none" stroke="white" stroke-width="1.5" d="M0,-3.0v7 M-2.5,-0.5L0,-3.0L2.5,-0.5"/>
                </g>
                <g id="arrowRight" xlink:href="#dirArrow" transform="rotate(90) translate(36 -43)" onmousedown="handlePan(1,0)">
                  <use xlink:href="#rim" fill="#404040">
                        <set attributeName="fill" to="#808080" begin="arrowRight.mouseover" end="arrowRight.mouseout"/>
                  </use>
                  <path fill="none" stroke="white" stroke-width="1.5" d="M0,-3.0v7 M-2.5,-0.5L0,-3.0L2.5,-0.5"/>
                </g>
                <g id="arrowDown" xlink:href="#dirArrow" transform="rotate(180) translate(-30 -48)" onmousedown="handlePan(0,1)">
                  <use xlink:href="#rim" fill="#404040">
                        <set attributeName="fill" to="#808080" begin="arrowDown.mouseover" end="arrowDown.mouseout"/>
                  </use>
                  <path fill="none" stroke="white" stroke-width="1.5" d="M0,-3.0v7 M-2.5,-0.5L0,-3.0L2.5,-0.5"/>
                </g>
                <g id="arrowLeft" xlink:href="#dirArrow" transform="rotate(270) translate(-36 17)" onmousedown="handlePan(-1,0)">
                  <use xlink:href="#rim" fill="#404040">
                        <set attributeName="fill" to="#808080" begin="arrowLeft.mouseover" end="arrowLeft.mouseout"/>
                  </use>
                  <path fill="none" stroke="white" stroke-width="1.5" d="M0,-3.0v7 M-2.5,-0.5L0,-3.0L2.5,-0.5"/>
                </g>
        </g>
        <svg viewBox="0 0 15 15" width="100%" height="30px" preserveAspectRatio="xMaxYMin meet">
         <g id="arrow_out" transform="scale(0.3 0.3)">
          <a xlink:href="radix__sort2_8cpp_ae66f6b31b5ad750f1fe042a706a4e3d4_cgraph_org.svg" target="_base">
           <rect id="button" ry="5" rx="5" y="6" x="6" height="38" width="38"
                fill="#f2f5e9" fill-opacity="0.5" stroke="#606060" stroke-width="1.0"/>
           <path id="arrow"
             d="M 11.500037,31.436501 C 11.940474,20.09759 22.043105,11.32322 32.158766,21.979434 L 37.068811,17.246167 C 37.068811,17.246167 37.088388,32 37.088388,32 L 22.160133,31.978069 C 22.160133,31.978069 26.997745,27.140456 26.997745,27.140456 C 18.528582,18.264221 13.291696,25.230495 11.500037,31.436501 z"
             style="fill:#404040;"/>
          </a>
         </g>
        </svg>
</svg>
