<?xml version="1.0" encoding="UTF-8" standalone="no"?>
<!DOCTYPE svg PUBLIC "-//W3C//DTD SVG 1.1//EN"
 "http://www.w3.org/Graphics/SVG/1.1/DTD/svg11.dtd">
<!-- Generated by graphviz version 2.44.1 (20200629.0846)
 -->
<!-- Title: main Pages: 1 -->
<svg width="579pt" height="115pt"
 viewBox="0.00 0.00 579.00 114.50" xmlns="http://www.w3.org/2000/svg" xmlns:xlink="http://www.w3.org/1999/xlink">
<g id="graph0" class="graph" transform="scale(1 1) rotate(0) translate(4 110.5)">
<title>main</title>
<polygon fill="white" stroke="transparent" points="-4,4 -4,-110.5 575,-110.5 575,4 -4,4"/>
<!-- Node1 -->
<g id="node1" class="node">
<title>Node1</title>
<g id="a_node1"><a xlink:title="Main function.">
<polygon fill="#bfbfbf" stroke="black" points="0,-49 0,-68 38,-68 38,-49 0,-49"/>
<text text-anchor="middle" x="19" y="-56" font-family="Helvetica,sans-Serif" font-size="10.00">main</text>
</a>
</g>
</g>
<!-- Node2 -->
<g id="node2" class="node">
<title>Node2</title>
<g id="a_node2"><a target="_blank" xlink:href="http://en.cppreference.com/w/cpp/container/vector/push_back.html#" target="_top" xlink:title=" ">
<polygon fill="white" stroke="black" points="74,-87 74,-106 190,-106 190,-87 74,-87"/>
<text text-anchor="middle" x="132" y="-94" font-family="Helvetica,sans-Serif" font-size="10.00">std::vector::push_back</text>
</a>
</g>
</g>
<!-- Node1&#45;&gt;Node2 -->
<g id="edge1" class="edge">
<title>Node1&#45;&gt;Node2</title>
<path fill="none" stroke="midnightblue" d="M38.47,-65.08C48.89,-68.78 62.15,-73.44 74,-77.5 79.96,-79.54 86.28,-81.68 92.45,-83.75"/>
<polygon fill="midnightblue" stroke="midnightblue" points="91.38,-87.08 101.97,-86.93 93.6,-80.44 91.38,-87.08"/>
</g>
<!-- Node3 -->
<g id="node3" class="node">
<title>Node3</title>
<g id="a_node3"><a xlink:href="../../d8/d61/radix__sort2_8cpp.html#ae7880ce913f3058a35ff106d5be9e243" target="_top" xlink:title=" ">
<polygon fill="white" stroke="black" points="113,-11 113,-30 151,-30 151,-11 113,-11"/>
<text text-anchor="middle" x="132" y="-18" font-family="Helvetica,sans-Serif" font-size="10.00">test1</text>
</a>
</g>
</g>
<!-- Node1&#45;&gt;Node3 -->
<g id="edge2" class="edge">
<title>Node1&#45;&gt;Node3</title>
<path fill="none" stroke="midnightblue" d="M38.47,-51.92C48.89,-48.22 62.15,-43.56 74,-39.5 83.49,-36.25 93.9,-32.76 103.2,-29.67"/>
<polygon fill="midnightblue" stroke="midnightblue" points="104.36,-32.97 112.75,-26.5 102.15,-26.32 104.36,-32.97"/>
</g>
<!-- Node9 -->
<g id="node9" class="node">
<title>Node9</title>
<g id="a_node9"><a xlink:href="../../d8/d61/radix__sort2_8cpp.html#a45d94ead4cf4e1ff9f87c38bc99f59ae" target="_top" xlink:title=" ">
<polygon fill="white" stroke="black" points="113,-49 113,-68 151,-68 151,-49 113,-49"/>
<text text-anchor="middle" x="132" y="-56" font-family="Helvetica,sans-Serif" font-size="10.00">test2</text>
</a>
</g>
</g>
<!-- Node1&#45;&gt;Node9 -->
<g id="edge8" class="edge">
<title>Node1&#45;&gt;Node9</title>
<path fill="none" stroke="midnightblue" d="M38.33,-58.5C55.76,-58.5 82.25,-58.5 102.45,-58.5"/>
<polygon fill="midnightblue" stroke="midnightblue" points="102.64,-62 112.64,-58.5 102.64,-55 102.64,-62"/>
</g>
<!-- Node4 -->
<g id="node4" class="node">
<title>Node4</title>
<g id="a_node4"><a xlink:href="../../d4/d1d/classsort_1_1radix__sort_1_1radix.html#a5cb227ae7b5a279ce416380d2a877606" target="_top" xlink:title="Function to sort vector digit by digit.">
<polygon fill="white" stroke="black" points="226,-49.5 226,-79.5 335,-79.5 335,-49.5 226,-49.5"/>
<text text-anchor="start" x="234" y="-67.5" font-family="Helvetica,sans-Serif" font-size="10.00">sort::radix_sort::radix</text>
<text text-anchor="middle" x="280.5" y="-56.5" font-family="Helvetica,sans-Serif" font-size="10.00">::radix_sort</text>
</a>
</g>
</g>
<!-- Node3&#45;&gt;Node4 -->
<g id="edge3" class="edge">
<title>Node3&#45;&gt;Node4</title>
<path fill="none" stroke="midnightblue" d="M151.26,-25.98C168.46,-31.15 195.19,-39.18 219.81,-46.57"/>
<polygon fill="midnightblue" stroke="midnightblue" points="218.88,-49.95 229.47,-49.47 220.9,-43.24 218.88,-49.95"/>
</g>
<!-- Node8 -->
<g id="node8" class="node">
<title>Node8</title>
<g id="a_node8"><a xlink:href="../../d4/d1d/classsort_1_1radix__sort_1_1radix.html#af71010ae963a8d419cea9d78df82115b" target="_top" xlink:title="Function that print the elements of vector.">
<polygon fill="white" stroke="black" points="226,-0.5 226,-30.5 335,-30.5 335,-0.5 226,-0.5"/>
<text text-anchor="start" x="234" y="-18.5" font-family="Helvetica,sans-Serif" font-size="10.00">sort::radix_sort::radix</text>
<text text-anchor="middle" x="280.5" y="-7.5" font-family="Helvetica,sans-Serif" font-size="10.00">::show</text>
</a>
</g>
</g>
<!-- Node3&#45;&gt;Node8 -->
<g id="edge7" class="edge">
<title>Node3&#45;&gt;Node8</title>
<path fill="none" stroke="midnightblue" d="M151.26,-19.88C167.49,-19.32 192.23,-18.48 215.65,-17.68"/>
<polygon fill="midnightblue" stroke="midnightblue" points="216.06,-21.17 225.93,-17.33 215.82,-14.17 216.06,-21.17"/>
</g>
<!-- Node5 -->
<g id="node5" class="node">
<title>Node5</title>
<g id="a_node5"><a xlink:href="../../d4/d1d/classsort_1_1radix__sort_1_1radix.html#ae5cf8da72ded44713d7eaed0f1ba5a0e" target="_top" xlink:title="Function that returns the max element.">
<polygon fill="white" stroke="black" points="371,-73.5 371,-103.5 480,-103.5 480,-73.5 371,-73.5"/>
<text text-anchor="start" x="379" y="-91.5" font-family="Helvetica,sans-Serif" font-size="10.00">sort::radix_sort::radix</text>
<text text-anchor="middle" x="425.5" y="-80.5" font-family="Helvetica,sans-Serif" font-size="10.00">::get_max</text>
</a>
</g>
</g>
<!-- Node4&#45;&gt;Node5 -->
<g id="edge4" class="edge">
<title>Node4&#45;&gt;Node5</title>
<path fill="none" stroke="midnightblue" d="M335.15,-73.5C343.47,-74.9 352.13,-76.35 360.65,-77.78"/>
<polygon fill="midnightblue" stroke="midnightblue" points="360.1,-81.24 370.54,-79.44 361.26,-74.34 360.1,-81.24"/>
</g>
<!-- Node7 -->
<g id="node7" class="node">
<title>Node7</title>
<g id="a_node7"><a xlink:href="../../d4/d1d/classsort_1_1radix__sort_1_1radix.html#a1810ce4395b59bce1dc83b22357e5119" target="_top" xlink:title="Function to sort vector according to current digit using stable sorting.">
<polygon fill="white" stroke="black" points="371,-24.5 371,-54.5 480,-54.5 480,-24.5 371,-24.5"/>
<text text-anchor="start" x="379" y="-42.5" font-family="Helvetica,sans-Serif" font-size="10.00">sort::radix_sort::radix</text>
<text text-anchor="middle" x="425.5" y="-31.5" font-family="Helvetica,sans-Serif" font-size="10.00">::step_ith</text>
</a>
</g>
</g>
<!-- Node4&#45;&gt;Node7 -->
<g id="edge6" class="edge">
<title>Node4&#45;&gt;Node7</title>
<path fill="none" stroke="midnightblue" d="M335.15,-55.12C343.47,-53.67 352.13,-52.15 360.65,-50.66"/>
<polygon fill="midnightblue" stroke="midnightblue" points="361.3,-54.1 370.54,-48.93 360.09,-47.21 361.3,-54.1"/>
</g>
<!-- Node6 -->
<g id="node6" class="node">
<title>Node6</title>
<g id="a_node6"><a target="_blank" xlink:href="http://en.cppreference.com/w/cpp/algorithm/max.html#" target="_top" xlink:title=" ">
<polygon fill="white" stroke="black" points="516,-79 516,-98 571,-98 571,-79 516,-79"/>
<text text-anchor="middle" x="543.5" y="-86" font-family="Helvetica,sans-Serif" font-size="10.00">std::max</text>
</a>
</g>
</g>
<!-- Node5&#45;&gt;Node6 -->
<g id="edge5" class="edge">
<title>Node5&#45;&gt;Node6</title>
<path fill="none" stroke="midnightblue" d="M480.09,-88.5C488.85,-88.5 497.75,-88.5 505.98,-88.5"/>
<polygon fill="midnightblue" stroke="midnightblue" points="505.98,-92 515.98,-88.5 505.98,-85 505.98,-92"/>
</g>
<!-- Node9&#45;&gt;Node4 -->
<g id="edge9" class="edge">
<title>Node9&#45;&gt;Node4</title>
<path fill="none" stroke="midnightblue" d="M151.26,-59.25C167.49,-59.91 192.23,-60.93 215.65,-61.89"/>
<polygon fill="midnightblue" stroke="midnightblue" points="215.8,-65.39 225.93,-62.31 216.09,-58.4 215.8,-65.39"/>
</g>
<!-- Node9&#45;&gt;Node8 -->
<g id="edge10" class="edge">
<title>Node9&#45;&gt;Node8</title>
<path fill="none" stroke="midnightblue" d="M151.26,-53.14C168.11,-48.19 194.12,-40.56 218.32,-33.46"/>
<polygon fill="midnightblue" stroke="midnightblue" points="219.58,-36.74 228.19,-30.56 217.61,-30.02 219.58,-36.74"/>
</g>
</g>
</svg>
