<?xml version="1.0" encoding="UTF-8" standalone="no"?>
<!DOCTYPE svg PUBLIC "-//W3C//DTD SVG 1.1//EN"
 "http://www.w3.org/Graphics/SVG/1.1/DTD/svg11.dtd">
<!-- Generated by graphviz version 2.44.1 (20200629.0846)
 -->
<!-- Title: main Pages: 1 -->
<svg width="579pt" height="164pt"
 viewBox="0.00 0.00 579.00 164.38" xmlns="http://www.w3.org/2000/svg" xmlns:xlink="http://www.w3.org/1999/xlink">
<g id="graph0" class="graph" transform="scale(1 1) rotate(0) translate(4 160.38)">
<title>main</title>
<polygon fill="white" stroke="transparent" points="-4,4 -4,-160.38 575,-160.38 575,4 -4,4"/>
<!-- Node1 -->
<g id="node1" class="node">
<title>Node1</title>
<g id="a_node1"><a xlink:title="Main function.">
<polygon fill="#bfbfbf" stroke="black" points="0,-60.88 0,-79.88 38,-79.88 38,-60.88 0,-60.88"/>
<text text-anchor="middle" x="19" y="-67.88" font-family="Helvetica,sans-Serif" font-size="10.00">main</text>
</a>
</g>
</g>
<!-- Node2 -->
<g id="node2" class="node">
<title>Node2</title>
<g id="a_node2"><a target="_blank" xlink:href="http://en.cppreference.com/w/cpp/container/vector/push_back.html#" target="_top" xlink:title=" ">
<polygon fill="white" stroke="black" points="74,-136.88 74,-155.88 190,-155.88 190,-136.88 74,-136.88"/>
<text text-anchor="middle" x="132" y="-143.88" font-family="Helvetica,sans-Serif" font-size="10.00">std::vector::push_back</text>
</a>
</g>
</g>
<!-- Node1&#45;&gt;Node2 -->
<g id="edge1" class="edge">
<title>Node1&#45;&gt;Node2</title>
<path fill="none" stroke="midnightblue" d="M27.93,-79.92C37.77,-91.27 55.52,-110.21 74,-122.38 79.9,-126.27 86.54,-129.75 93.14,-132.77"/>
<polygon fill="midnightblue" stroke="midnightblue" points="92.13,-136.14 102.71,-136.86 94.89,-129.71 92.13,-136.14"/>
</g>
<!-- Node3 -->
<g id="node3" class="node">
<title>Node3</title>
<g id="a_node3"><a xlink:href="../../d4/d1d/classsort_1_1radix__sort_1_1radix.html#a5cb227ae7b5a279ce416380d2a877606" target="_top" xlink:title="Function to sort vector digit by digit.">
<polygon fill="white" stroke="black" points="226,-60.38 226,-90.38 335,-90.38 335,-60.38 226,-60.38"/>
<text text-anchor="start" x="234" y="-78.38" font-family="Helvetica,sans-Serif" font-size="10.00">sort::radix_sort::radix</text>
<text text-anchor="middle" x="280.5" y="-67.38" font-family="Helvetica,sans-Serif" font-size="10.00">::radix_sort</text>
</a>
</g>
</g>
<!-- Node1&#45;&gt;Node3 -->
<g id="edge2" class="edge">
<title>Node1&#45;&gt;Node3</title>
<path fill="none" stroke="midnightblue" d="M38.08,-78.48C48.38,-82.64 61.66,-87.28 74,-89.38 121.12,-97.43 175.06,-93.26 215.85,-87.43"/>
<polygon fill="midnightblue" stroke="midnightblue" points="216.56,-90.86 225.93,-85.92 215.52,-83.94 216.56,-90.86"/>
</g>
<!-- Node7 -->
<g id="node7" class="node">
<title>Node7</title>
<g id="a_node7"><a xlink:href="../../d4/d1d/classsort_1_1radix__sort_1_1radix.html#af71010ae963a8d419cea9d78df82115b" target="_top" xlink:title="Function that print the elements of vector.">
<polygon fill="white" stroke="black" points="226,-11.38 226,-41.38 335,-41.38 335,-11.38 226,-11.38"/>
<text text-anchor="start" x="234" y="-29.38" font-family="Helvetica,sans-Serif" font-size="10.00">sort::radix_sort::radix</text>
<text text-anchor="middle" x="280.5" y="-18.38" font-family="Helvetica,sans-Serif" font-size="10.00">::show</text>
</a>
</g>
</g>
<!-- Node1&#45;&gt;Node7 -->
<g id="edge6" class="edge">
<title>Node1&#45;&gt;Node7</title>
<path fill="none" stroke="midnightblue" d="M25.49,-60.86C33.92,-47.32 51.46,-23.08 74,-13.38 120.67,6.69 178.85,0.47 221.38,-9.03"/>
<polygon fill="midnightblue" stroke="midnightblue" points="220.76,-12.48 231.29,-11.37 222.36,-5.67 220.76,-12.48"/>
</g>
<!-- Node8 -->
<g id="node8" class="node">
<title>Node8</title>
<g id="a_node8"><a xlink:href="../../d8/d61/radix__sort2_8cpp.html#ae7880ce913f3058a35ff106d5be9e243" target="_top" xlink:title=" ">
<polygon fill="white" stroke="black" points="113,-22.88 113,-41.88 151,-41.88 151,-22.88 113,-22.88"/>
<text text-anchor="middle" x="132" y="-29.88" font-family="Helvetica,sans-Serif" font-size="10.00">test1</text>
</a>
</g>
</g>
<!-- Node1&#45;&gt;Node8 -->
<g id="edge7" class="edge">
<title>Node1&#45;&gt;Node8</title>
<path fill="none" stroke="midnightblue" d="M38.47,-63.8C48.89,-60.11 62.15,-55.44 74,-51.38 83.49,-48.13 93.9,-44.64 103.2,-41.55"/>
<polygon fill="midnightblue" stroke="midnightblue" points="104.36,-44.85 112.75,-38.38 102.15,-38.21 104.36,-44.85"/>
</g>
<!-- Node9 -->
<g id="node9" class="node">
<title>Node9</title>
<g id="a_node9"><a xlink:href="../../d8/d61/radix__sort2_8cpp.html#a0283886819c7c140a023582b7269e2d0" target="_top" xlink:title=" ">
<polygon fill="white" stroke="black" points="113,-60.88 113,-79.88 151,-79.88 151,-60.88 113,-60.88"/>
<text text-anchor="middle" x="132" y="-67.88" font-family="Helvetica,sans-Serif" font-size="10.00">test2</text>
</a>
</g>
</g>
<!-- Node1&#45;&gt;Node9 -->
<g id="edge10" class="edge">
<title>Node1&#45;&gt;Node9</title>
<path fill="none" stroke="midnightblue" d="M38.33,-70.38C55.76,-70.38 82.25,-70.38 102.45,-70.38"/>
<polygon fill="midnightblue" stroke="midnightblue" points="102.64,-73.88 112.64,-70.38 102.64,-66.88 102.64,-73.88"/>
</g>
<!-- Node4 -->
<g id="node4" class="node">
<title>Node4</title>
<g id="a_node4"><a xlink:href="../../d4/d1d/classsort_1_1radix__sort_1_1radix.html#ae5cf8da72ded44713d7eaed0f1ba5a0e" target="_top" xlink:title="Function that returns the max element.">
<polygon fill="white" stroke="black" points="371,-84.38 371,-114.38 480,-114.38 480,-84.38 371,-84.38"/>
<text text-anchor="start" x="379" y="-102.38" font-family="Helvetica,sans-Serif" font-size="10.00">sort::radix_sort::radix</text>
<text text-anchor="middle" x="425.5" y="-91.38" font-family="Helvetica,sans-Serif" font-size="10.00">::get_max</text>
</a>
</g>
</g>
<!-- Node3&#45;&gt;Node4 -->
<g id="edge3" class="edge">
<title>Node3&#45;&gt;Node4</title>
<path fill="none" stroke="midnightblue" d="M335.15,-84.39C343.47,-85.78 352.13,-87.24 360.65,-88.67"/>
<polygon fill="midnightblue" stroke="midnightblue" points="360.1,-92.12 370.54,-90.33 361.26,-85.22 360.1,-92.12"/>
</g>
<!-- Node6 -->
<g id="node6" class="node">
<title>Node6</title>
<g id="a_node6"><a xlink:href="../../d4/d1d/classsort_1_1radix__sort_1_1radix.html#a1810ce4395b59bce1dc83b22357e5119" target="_top" xlink:title="Function to sort vector according to current digit using stable sorting.">
<polygon fill="white" stroke="black" points="371,-35.38 371,-65.38 480,-65.38 480,-35.38 371,-35.38"/>
<text text-anchor="start" x="379" y="-53.38" font-family="Helvetica,sans-Serif" font-size="10.00">sort::radix_sort::radix</text>
<text text-anchor="middle" x="425.5" y="-42.38" font-family="Helvetica,sans-Serif" font-size="10.00">::step_ith</text>
</a>
</g>
</g>
<!-- Node3&#45;&gt;Node6 -->
<g id="edge5" class="edge">
<title>Node3&#45;&gt;Node6</title>
<path fill="none" stroke="midnightblue" d="M335.15,-66C343.47,-64.55 352.13,-63.04 360.65,-61.55"/>
<polygon fill="midnightblue" stroke="midnightblue" points="361.3,-64.99 370.54,-59.82 360.09,-58.09 361.3,-64.99"/>
</g>
<!-- Node5 -->
<g id="node5" class="node">
<title>Node5</title>
<g id="a_node5"><a target="_blank" xlink:href="http://en.cppreference.com/w/cpp/algorithm/max.html#" target="_top" xlink:title=" ">
<polygon fill="white" stroke="black" points="516,-89.88 516,-108.88 571,-108.88 571,-89.88 516,-89.88"/>
<text text-anchor="middle" x="543.5" y="-96.88" font-family="Helvetica,sans-Serif" font-size="10.00">std::max</text>
</a>
</g>
</g>
<!-- Node4&#45;&gt;Node5 -->
<g id="edge4" class="edge">
<title>Node4&#45;&gt;Node5</title>
<path fill="none" stroke="midnightblue" d="M480.09,-99.38C488.85,-99.38 497.75,-99.38 505.98,-99.38"/>
<polygon fill="midnightblue" stroke="midnightblue" points="505.98,-102.88 515.98,-99.38 505.98,-95.88 505.98,-102.88"/>
</g>
<!-- Node8&#45;&gt;Node3 -->
<g id="edge8" class="edge">
<title>Node8&#45;&gt;Node3</title>
<path fill="none" stroke="midnightblue" d="M151.26,-37.74C168.11,-42.69 194.12,-50.32 218.32,-57.43"/>
<polygon fill="midnightblue" stroke="midnightblue" points="217.61,-60.86 228.19,-60.32 219.58,-54.15 217.61,-60.86"/>
</g>
<!-- Node8&#45;&gt;Node7 -->
<g id="edge9" class="edge">
<title>Node8&#45;&gt;Node7</title>
<path fill="none" stroke="midnightblue" d="M151.26,-31.64C167.49,-30.97 192.23,-29.96 215.65,-29"/>
<polygon fill="midnightblue" stroke="midnightblue" points="216.09,-32.48 225.93,-28.58 215.8,-25.49 216.09,-32.48"/>
</g>
<!-- Node9&#45;&gt;Node3 -->
<g id="edge11" class="edge">
<title>Node9&#45;&gt;Node3</title>
<path fill="none" stroke="midnightblue" d="M151.26,-71.01C167.49,-71.56 192.23,-72.4 215.65,-73.2"/>
<polygon fill="midnightblue" stroke="midnightblue" points="215.82,-76.71 225.93,-73.56 216.06,-69.72 215.82,-76.71"/>
</g>
<!-- Node9&#45;&gt;Node7 -->
<g id="edge12" class="edge">
<title>Node9&#45;&gt;Node7</title>
<path fill="none" stroke="midnightblue" d="M151.26,-64.9C168.46,-59.73 195.19,-51.71 219.81,-44.31"/>
<polygon fill="midnightblue" stroke="midnightblue" points="220.9,-47.64 229.47,-41.41 218.88,-40.93 220.9,-47.64"/>
</g>
</g>
</svg>
