<?xml version="1.0" encoding="UTF-8" standalone="no"?>
<!DOCTYPE svg PUBLIC "-//W3C//DTD SVG 1.1//EN"
 "http://www.w3.org/Graphics/SVG/1.1/DTD/svg11.dtd">
<!-- Generated by graphviz version 2.44.1 (20200629.0846)
 -->
<!-- Title: test1 Pages: 1 -->
<svg width="399pt" height="112pt"
 viewBox="0.00 0.00 399.00 112.00" xmlns="http://www.w3.org/2000/svg" xmlns:xlink="http://www.w3.org/1999/xlink">
<g id="graph0" class="graph" transform="scale(1 1) rotate(0) translate(4 108)">
<title>test1</title>
<polygon fill="white" stroke="transparent" points="-4,4 -4,-108 395,-108 395,4 -4,4"/>
<!-- Node1 -->
<g id="node1" class="node">
<title>Node1</title>
<g id="a_node1"><a xlink:title=" ">
<polygon fill="#bfbfbf" stroke="black" points="0,-30 0,-49 38,-49 38,-30 0,-30"/>
<text text-anchor="middle" x="19" y="-37" font-family="Helvetica,sans-Serif" font-size="10.00">test1</text>
</a>
</g>
</g>
<!-- Node2 -->
<g id="node2" class="node">
<title>Node2</title>
<g id="a_node2"><a xlink:href="../../d7/d31/classsorting_1_1radix__sort_1_1radix.html#a71fa9ada928c6cb367db0ee444dda56d" target="_top" xlink:title="Function to sort vector digit by digit.">
<polygon fill="white" stroke="black" points="74,-49.5 74,-79.5 169,-79.5 169,-49.5 74,-49.5"/>
<text text-anchor="start" x="82" y="-67.5" font-family="Helvetica,sans-Serif" font-size="10.00">sorting::radix_sort</text>
<text text-anchor="middle" x="121.5" y="-56.5" font-family="Helvetica,sans-Serif" font-size="10.00">::radix::radix_sort</text>
</a>
</g>
</g>
<!-- Node1&#45;&gt;Node2 -->
<g id="edge1" class="edge">
<title>Node1&#45;&gt;Node2</title>
<path fill="none" stroke="midnightblue" d="M38.43,-44.09C45.76,-45.91 54.61,-48.11 63.76,-50.39"/>
<polygon fill="midnightblue" stroke="midnightblue" points="63.19,-53.85 73.74,-52.87 64.88,-47.06 63.19,-53.85"/>
</g>
<!-- Node6 -->
<g id="node6" class="node">
<title>Node6</title>
<g id="a_node6"><a xlink:href="../../d7/d31/classsorting_1_1radix__sort_1_1radix.html#a9e19c50592416123bfd0410dc38d1aee" target="_top" xlink:title="Function that print the elements of vector.">
<polygon fill="white" stroke="black" points="74,-0.5 74,-30.5 169,-30.5 169,-0.5 74,-0.5"/>
<text text-anchor="start" x="82" y="-18.5" font-family="Helvetica,sans-Serif" font-size="10.00">sorting::radix_sort</text>
<text text-anchor="middle" x="121.5" y="-7.5" font-family="Helvetica,sans-Serif" font-size="10.00">::radix::show</text>
</a>
</g>
</g>
<!-- Node1&#45;&gt;Node6 -->
<g id="edge5" class="edge">
<title>Node1&#45;&gt;Node6</title>
<path fill="none" stroke="midnightblue" d="M38.43,-35.1C45.76,-33.35 54.61,-31.23 63.76,-29.05"/>
<polygon fill="midnightblue" stroke="midnightblue" points="64.83,-32.39 73.74,-26.67 63.2,-25.58 64.83,-32.39"/>
</g>
<!-- Node3 -->
<g id="node3" class="node">
<title>Node3</title>
<g id="a_node3"><a xlink:href="../../d7/d31/classsorting_1_1radix__sort_1_1radix.html#a50f97f7539ab1c62f32d4c3ee2380430" target="_top" xlink:title="Function that returns the max element.">
<polygon fill="white" stroke="black" points="205,-73.5 205,-103.5 300,-103.5 300,-73.5 205,-73.5"/>
<text text-anchor="start" x="213" y="-91.5" font-family="Helvetica,sans-Serif" font-size="10.00">sorting::radix_sort</text>
<text text-anchor="middle" x="252.5" y="-80.5" font-family="Helvetica,sans-Serif" font-size="10.00">::radix::get_max</text>
</a>
</g>
</g>
<!-- Node2&#45;&gt;Node3 -->
<g id="edge2" class="edge">
<title>Node2&#45;&gt;Node3</title>
<path fill="none" stroke="midnightblue" d="M169.07,-73.16C177.48,-74.73 186.32,-76.37 194.97,-77.98"/>
<polygon fill="midnightblue" stroke="midnightblue" points="194.52,-81.46 205,-79.85 195.81,-74.58 194.52,-81.46"/>
</g>
<!-- Node5 -->
<g id="node5" class="node">
<title>Node5</title>
<g id="a_node5"><a xlink:href="../../d7/d31/classsorting_1_1radix__sort_1_1radix.html#a0b7e847382e94a720aed2b496f55bb93" target="_top" xlink:title="Function to sort vector according to current digit using stable sorting.">
<polygon fill="white" stroke="black" points="205,-24.5 205,-54.5 300,-54.5 300,-24.5 205,-24.5"/>
<text text-anchor="start" x="213" y="-42.5" font-family="Helvetica,sans-Serif" font-size="10.00">sorting::radix_sort</text>
<text text-anchor="middle" x="252.5" y="-31.5" font-family="Helvetica,sans-Serif" font-size="10.00">::radix::step_ith</text>
</a>
</g>
</g>
<!-- Node2&#45;&gt;Node5 -->
<g id="edge4" class="edge">
<title>Node2&#45;&gt;Node5</title>
<path fill="none" stroke="midnightblue" d="M169.07,-55.47C177.48,-53.85 186.32,-52.13 194.97,-50.46"/>
<polygon fill="midnightblue" stroke="midnightblue" points="195.84,-53.85 205,-48.51 194.51,-46.98 195.84,-53.85"/>
</g>
<!-- Node4 -->
<g id="node4" class="node">
<title>Node4</title>
<g id="a_node4"><a target="_blank" xlink:href="http://en.cppreference.com/w/cpp/algorithm/max.html#" target="_top" xlink:title=" ">
<polygon fill="white" stroke="black" points="336,-79 336,-98 391,-98 391,-79 336,-79"/>
<text text-anchor="middle" x="363.5" y="-86" font-family="Helvetica,sans-Serif" font-size="10.00">std::max</text>
</a>
</g>
</g>
<!-- Node3&#45;&gt;Node4 -->
<g id="edge3" class="edge">
<title>Node3&#45;&gt;Node4</title>
<path fill="none" stroke="midnightblue" d="M300.04,-88.5C308.67,-88.5 317.56,-88.5 325.84,-88.5"/>
<polygon fill="midnightblue" stroke="midnightblue" points="325.93,-92 335.93,-88.5 325.93,-85 325.93,-92"/>
</g>
</g>
</svg>
