<?xml version="1.0" encoding="UTF-8" standalone="no"?>
<!DOCTYPE svg PUBLIC "-//W3C//DTD SVG 1.1//EN"
 "http://www.w3.org/Graphics/SVG/1.1/DTD/svg11.dtd">
<!-- Generated by graphviz version 2.44.1 (20200629.0846)
 -->
<!-- Title: sorting::radix_sort::radix Pages: 1 -->
<svg width="357pt" height="172pt"
 viewBox="0.00 0.00 357.00 171.50" xmlns="http://www.w3.org/2000/svg" xmlns:xlink="http://www.w3.org/1999/xlink">
<g id="graph0" class="graph" transform="scale(1 1) rotate(0) translate(4 167.5)">
<title>sorting::radix_sort::radix</title>
<polygon fill="white" stroke="transparent" points="-4,4 -4,-167.5 353,-167.5 353,4 -4,4"/>
<!-- Node1 -->
<g id="node1" class="node">
<title>Node1</title>
<g id="a_node1"><a xlink:title="Function to sort vector digit by digit.">
<polygon fill="#bfbfbf" stroke="black" points="0,-81.5 0,-111.5 95,-111.5 95,-81.5 0,-81.5"/>
<text text-anchor="start" x="8" y="-99.5" font-family="Helvetica,sans-Serif" font-size="10.00">sorting::radix_sort</text>
<text text-anchor="middle" x="47.5" y="-88.5" font-family="Helvetica,sans-Serif" font-size="10.00">::radix</text>
</a>
</g>
</g>
<!-- Node1&#45;&gt;Node1 -->
<g id="edge3" class="edge">
<title>Node1&#45;&gt;Node1</title>
<path fill="none" stroke="midnightblue" d="M24.84,-111.66C19.38,-121.06 26.93,-130 47.5,-130 60.03,-130 67.73,-126.68 70.6,-121.96"/>
<polygon fill="midnightblue" stroke="midnightblue" points="74.08,-121.5 70.16,-111.66 67.09,-121.8 74.08,-121.5"/>
</g>
<!-- Node2 -->
<g id="node2" class="node">
<title>Node2</title>
<g id="a_node2"><a target="_blank" xlink:href="http://en.cppreference.com/w/cpp/container/vector/begin.html#" target="_top" xlink:title=" ">
<polygon fill="white" stroke="black" points="132.5,-144 132.5,-163 224.5,-163 224.5,-144 132.5,-144"/>
<text text-anchor="middle" x="178.5" y="-151" font-family="Helvetica,sans-Serif" font-size="10.00">std::vector::begin</text>
</a>
</g>
</g>
<!-- Node1&#45;&gt;Node2 -->
<g id="edge1" class="edge">
<title>Node1&#45;&gt;Node2</title>
<path fill="none" stroke="midnightblue" d="M80.48,-111.63C95.71,-118.73 114.22,-127.21 131,-134.5 135.16,-136.31 139.55,-138.17 143.91,-139.98"/>
<polygon fill="midnightblue" stroke="midnightblue" points="142.7,-143.27 153.28,-143.84 145.37,-136.79 142.7,-143.27"/>
</g>
<!-- Node3 -->
<g id="node3" class="node">
<title>Node3</title>
<g id="a_node3"><a target="_blank" xlink:href="http://en.cppreference.com/w/cpp/container/vector/end.html#" target="_top" xlink:title=" ">
<polygon fill="white" stroke="black" points="136,-106 136,-125 221,-125 221,-106 136,-106"/>
<text text-anchor="middle" x="178.5" y="-113" font-family="Helvetica,sans-Serif" font-size="10.00">std::vector::end</text>
</a>
</g>
</g>
<!-- Node1&#45;&gt;Node3 -->
<g id="edge2" class="edge">
<title>Node1&#45;&gt;Node3</title>
<path fill="none" stroke="midnightblue" d="M95.07,-103.36C105.03,-104.83 115.61,-106.38 125.75,-107.88"/>
<polygon fill="midnightblue" stroke="midnightblue" points="125.3,-111.35 135.71,-109.34 126.32,-104.42 125.3,-111.35"/>
</g>
<!-- Node4 -->
<g id="node4" class="node">
<title>Node4</title>
<g id="a_node4"><a target="_blank" xlink:href="http://en.cppreference.com/w/cpp/container/vector/size.html#" target="_top" xlink:title=" ">
<polygon fill="white" stroke="black" points="262,-37 262,-56 349,-56 349,-37 262,-37"/>
<text text-anchor="middle" x="305.5" y="-44" font-family="Helvetica,sans-Serif" font-size="10.00">std::vector::size</text>
</a>
</g>
</g>
<!-- Node1&#45;&gt;Node4 -->
<g id="edge4" class="edge">
<title>Node1&#45;&gt;Node4</title>
<path fill="none" stroke="midnightblue" d="M95.16,-87.39C139.4,-78.75 205.79,-65.78 251.9,-56.77"/>
<polygon fill="midnightblue" stroke="midnightblue" points="252.85,-60.15 261.99,-54.8 251.5,-53.28 252.85,-60.15"/>
</g>
<!-- Node5 -->
<g id="node5" class="node">
<title>Node5</title>
<g id="a_node5"><a xlink:href="../../d8/d61/radix__sort2_8cpp.html#aa37235fdbbc052803d0a0ec11a206fd2" target="_top" xlink:title="Function to sort vector according to current digit using stable sorting.">
<polygon fill="white" stroke="black" points="131,-0.5 131,-30.5 226,-30.5 226,-0.5 131,-0.5"/>
<text text-anchor="start" x="139" y="-18.5" font-family="Helvetica,sans-Serif" font-size="10.00">sorting::radix_sort</text>
<text text-anchor="middle" x="178.5" y="-7.5" font-family="Helvetica,sans-Serif" font-size="10.00">::step_ith</text>
</a>
</g>
</g>
<!-- Node1&#45;&gt;Node5 -->
<g id="edge5" class="edge">
<title>Node1&#45;&gt;Node5</title>
<path fill="none" stroke="midnightblue" d="M72.46,-81.45C92.79,-68.69 122.15,-50.26 144.66,-36.12"/>
<polygon fill="midnightblue" stroke="midnightblue" points="146.62,-39.02 153.23,-30.74 142.9,-33.09 146.62,-39.02"/>
</g>
<!-- Node5&#45;&gt;Node4 -->
<g id="edge6" class="edge">
<title>Node5&#45;&gt;Node4</title>
<path fill="none" stroke="midnightblue" d="M226.05,-27.04C235.94,-29.5 246.4,-32.09 256.35,-34.56"/>
<polygon fill="midnightblue" stroke="midnightblue" points="255.54,-37.96 266.09,-36.97 257.22,-31.17 255.54,-37.96"/>
</g>
<!-- Node5&#45;&gt;Node5 -->
<g id="edge7" class="edge">
<title>Node5&#45;&gt;Node5</title>
<path fill="none" stroke="midnightblue" d="M156.54,-30.66C151.25,-40.06 158.57,-49 178.5,-49 190.65,-49 198.11,-45.68 200.89,-40.96"/>
<polygon fill="midnightblue" stroke="midnightblue" points="204.37,-40.5 200.46,-30.66 197.38,-40.8 204.37,-40.5"/>
</g>
</g>
</svg>
