<?xml version="1.0" encoding="UTF-8" standalone="no"?>
<!DOCTYPE svg PUBLIC "-//W3C//DTD SVG 1.1//EN"
 "http://www.w3.org/Graphics/SVG/1.1/DTD/svg11.dtd">
<!-- Generated by graphviz version 2.44.1 (20200629.0846)
 -->
<!-- Title: test2 Pages: 1 -->
<svg width="427pt" height="112pt"
 viewBox="0.00 0.00 427.00 112.00" xmlns="http://www.w3.org/2000/svg" xmlns:xlink="http://www.w3.org/1999/xlink">
<g id="graph0" class="graph" transform="scale(1 1) rotate(0) translate(4 108)">
<title>test2</title>
<polygon fill="white" stroke="transparent" points="-4,4 -4,-108 423,-108 423,4 -4,4"/>
<!-- Node1 -->
<g id="node1" class="node">
<title>Node1</title>
<g id="a_node1"><a xlink:title=" ">
<polygon fill="#bfbfbf" stroke="black" points="0,-30 0,-49 38,-49 38,-30 0,-30"/>
<text text-anchor="middle" x="19" y="-37" font-family="Helvetica,sans-Serif" font-size="10.00">test2</text>
</a>
</g>
</g>
<!-- Node2 -->
<g id="node2" class="node">
<title>Node2</title>
<g id="a_node2"><a xlink:href="../../d4/d1d/classsort_1_1radix__sort_1_1radix.html#a5cb227ae7b5a279ce416380d2a877606" target="_top" xlink:title="Function to sort vector digit by digit.">
<polygon fill="white" stroke="black" points="74,-49.5 74,-79.5 183,-79.5 183,-49.5 74,-49.5"/>
<text text-anchor="start" x="82" y="-67.5" font-family="Helvetica,sans-Serif" font-size="10.00">sort::radix_sort::radix</text>
<text text-anchor="middle" x="128.5" y="-56.5" font-family="Helvetica,sans-Serif" font-size="10.00">::radix_sort</text>
</a>
</g>
</g>
<!-- Node1&#45;&gt;Node2 -->
<g id="edge1" class="edge">
<title>Node1&#45;&gt;Node2</title>
<path fill="none" stroke="midnightblue" d="M38.24,-43.74C45.62,-45.46 54.61,-47.55 64.02,-49.74"/>
<polygon fill="midnightblue" stroke="midnightblue" points="63.39,-53.18 73.92,-52.04 64.98,-46.37 63.39,-53.18"/>
</g>
<!-- Node6 -->
<g id="node6" class="node">
<title>Node6</title>
<g id="a_node6"><a xlink:href="../../d4/d1d/classsort_1_1radix__sort_1_1radix.html#af71010ae963a8d419cea9d78df82115b" target="_top" xlink:title="Function that print the elements of vector.">
<polygon fill="white" stroke="black" points="74,-0.5 74,-30.5 183,-30.5 183,-0.5 74,-0.5"/>
<text text-anchor="start" x="82" y="-18.5" font-family="Helvetica,sans-Serif" font-size="10.00">sort::radix_sort::radix</text>
<text text-anchor="middle" x="128.5" y="-7.5" font-family="Helvetica,sans-Serif" font-size="10.00">::show</text>
</a>
</g>
</g>
<!-- Node1&#45;&gt;Node6 -->
<g id="edge5" class="edge">
<title>Node1&#45;&gt;Node6</title>
<path fill="none" stroke="midnightblue" d="M38.24,-35.43C45.62,-33.78 54.61,-31.77 64.02,-29.67"/>
<polygon fill="midnightblue" stroke="midnightblue" points="64.93,-33.06 73.92,-27.46 63.4,-26.22 64.93,-33.06"/>
</g>
<!-- Node3 -->
<g id="node3" class="node">
<title>Node3</title>
<g id="a_node3"><a xlink:href="../../d4/d1d/classsort_1_1radix__sort_1_1radix.html#ae5cf8da72ded44713d7eaed0f1ba5a0e" target="_top" xlink:title="Function that returns the max element.">
<polygon fill="white" stroke="black" points="219,-73.5 219,-103.5 328,-103.5 328,-73.5 219,-73.5"/>
<text text-anchor="start" x="227" y="-91.5" font-family="Helvetica,sans-Serif" font-size="10.00">sort::radix_sort::radix</text>
<text text-anchor="middle" x="273.5" y="-80.5" font-family="Helvetica,sans-Serif" font-size="10.00">::get_max</text>
</a>
</g>
</g>
<!-- Node2&#45;&gt;Node3 -->
<g id="edge2" class="edge">
<title>Node2&#45;&gt;Node3</title>
<path fill="none" stroke="midnightblue" d="M183.15,-73.5C191.47,-74.9 200.13,-76.35 208.65,-77.78"/>
<polygon fill="midnightblue" stroke="midnightblue" points="208.1,-81.24 218.54,-79.44 209.26,-74.34 208.1,-81.24"/>
</g>
<!-- Node5 -->
<g id="node5" class="node">
<title>Node5</title>
<g id="a_node5"><a xlink:href="../../d4/d1d/classsort_1_1radix__sort_1_1radix.html#a1810ce4395b59bce1dc83b22357e5119" target="_top" xlink:title="Function to sort vector according to current digit using stable sorting.">
<polygon fill="white" stroke="black" points="219,-24.5 219,-54.5 328,-54.5 328,-24.5 219,-24.5"/>
<text text-anchor="start" x="227" y="-42.5" font-family="Helvetica,sans-Serif" font-size="10.00">sort::radix_sort::radix</text>
<text text-anchor="middle" x="273.5" y="-31.5" font-family="Helvetica,sans-Serif" font-size="10.00">::step_ith</text>
</a>
</g>
</g>
<!-- Node2&#45;&gt;Node5 -->
<g id="edge4" class="edge">
<title>Node2&#45;&gt;Node5</title>
<path fill="none" stroke="midnightblue" d="M183.15,-55.12C191.47,-53.67 200.13,-52.15 208.65,-50.66"/>
<polygon fill="midnightblue" stroke="midnightblue" points="209.3,-54.1 218.54,-48.93 208.09,-47.21 209.3,-54.1"/>
</g>
<!-- Node4 -->
<g id="node4" class="node">
<title>Node4</title>
<g id="a_node4"><a target="_blank" xlink:href="http://en.cppreference.com/w/cpp/algorithm/max.html#" target="_top" xlink:title=" ">
<polygon fill="white" stroke="black" points="364,-79 364,-98 419,-98 419,-79 364,-79"/>
<text text-anchor="middle" x="391.5" y="-86" font-family="Helvetica,sans-Serif" font-size="10.00">std::max</text>
</a>
</g>
</g>
<!-- Node3&#45;&gt;Node4 -->
<g id="edge3" class="edge">
<title>Node3&#45;&gt;Node4</title>
<path fill="none" stroke="midnightblue" d="M328.09,-88.5C336.85,-88.5 345.75,-88.5 353.98,-88.5"/>
<polygon fill="midnightblue" stroke="midnightblue" points="353.98,-92 363.98,-88.5 353.98,-85 353.98,-92"/>
</g>
</g>
</svg>
