<?xml version="1.0" encoding="UTF-8" standalone="no"?>
<!DOCTYPE svg PUBLIC "-//W3C//DTD SVG 1.1//EN"
 "http://www.w3.org/Graphics/SVG/1.1/DTD/svg11.dtd">
<!-- Generated by graphviz version 2.44.1 (20200629.0846)
 -->
<!-- Title: sort::radix_sort::radix::radix_sort Pages: 1 -->
<svg width="353pt" height="88pt"
 viewBox="0.00 0.00 353.00 88.00" xmlns="http://www.w3.org/2000/svg" xmlns:xlink="http://www.w3.org/1999/xlink">
<g id="graph0" class="graph" transform="scale(1 1) rotate(0) translate(4 84)">
<title>sort::radix_sort::radix::radix_sort</title>
<polygon fill="white" stroke="transparent" points="-4,4 -4,-84 349,-84 349,4 -4,4"/>
<!-- Node1 -->
<g id="node1" class="node">
<title>Node1</title>
<g id="a_node1"><a xlink:title="Function to sort vector digit by digit.">
<polygon fill="#bfbfbf" stroke="black" points="0,-24.5 0,-54.5 109,-54.5 109,-24.5 0,-24.5"/>
<text text-anchor="start" x="8" y="-42.5" font-family="Helvetica,sans-Serif" font-size="10.00">sort::radix_sort::radix</text>
<text text-anchor="middle" x="54.5" y="-31.5" font-family="Helvetica,sans-Serif" font-size="10.00">::radix_sort</text>
</a>
</g>
</g>
<!-- Node2 -->
<g id="node2" class="node">
<title>Node2</title>
<g id="a_node2"><a xlink:href="../../d4/d1d/classsort_1_1radix__sort_1_1radix.html#ae5cf8da72ded44713d7eaed0f1ba5a0e" target="_top" xlink:title="Function that returns the max element.">
<polygon fill="white" stroke="black" points="145,-49.5 145,-79.5 254,-79.5 254,-49.5 145,-49.5"/>
<text text-anchor="start" x="153" y="-67.5" font-family="Helvetica,sans-Serif" font-size="10.00">sort::radix_sort::radix</text>
<text text-anchor="middle" x="199.5" y="-56.5" font-family="Helvetica,sans-Serif" font-size="10.00">::get_max</text>
</a>
</g>
</g>
<!-- Node1&#45;&gt;Node2 -->
<g id="edge1" class="edge">
<title>Node1&#45;&gt;Node2</title>
<path fill="none" stroke="midnightblue" d="M109.15,-48.88C117.47,-50.33 126.13,-51.85 134.65,-53.34"/>
<polygon fill="midnightblue" stroke="midnightblue" points="134.09,-56.79 144.54,-55.07 135.3,-49.9 134.09,-56.79"/>
</g>
<!-- Node4 -->
<g id="node4" class="node">
<title>Node4</title>
<g id="a_node4"><a xlink:href="../../d4/d1d/classsort_1_1radix__sort_1_1radix.html#a1810ce4395b59bce1dc83b22357e5119" target="_top" xlink:title="Function to sort vector according to current digit using stable sorting.">
<polygon fill="white" stroke="black" points="145,-0.5 145,-30.5 254,-30.5 254,-0.5 145,-0.5"/>
<text text-anchor="start" x="153" y="-18.5" font-family="Helvetica,sans-Serif" font-size="10.00">sort::radix_sort::radix</text>
<text text-anchor="middle" x="199.5" y="-7.5" font-family="Helvetica,sans-Serif" font-size="10.00">::step_ith</text>
</a>
</g>
</g>
<!-- Node1&#45;&gt;Node4 -->
<g id="edge3" class="edge">
<title>Node1&#45;&gt;Node4</title>
<path fill="none" stroke="midnightblue" d="M109.15,-30.5C117.47,-29.1 126.13,-27.65 134.65,-26.22"/>
<polygon fill="midnightblue" stroke="midnightblue" points="135.26,-29.66 144.54,-24.56 134.1,-22.76 135.26,-29.66"/>
</g>
<!-- Node3 -->
<g id="node3" class="node">
<title>Node3</title>
<g id="a_node3"><a target="_blank" xlink:href="http://en.cppreference.com/w/cpp/algorithm/max.html#" target="_top" xlink:title=" ">
<polygon fill="white" stroke="black" points="290,-55 290,-74 345,-74 345,-55 290,-55"/>
<text text-anchor="middle" x="317.5" y="-62" font-family="Helvetica,sans-Serif" font-size="10.00">std::max</text>
</a>
</g>
</g>
<!-- Node2&#45;&gt;Node3 -->
<g id="edge2" class="edge">
<title>Node2&#45;&gt;Node3</title>
<path fill="none" stroke="midnightblue" d="M254.09,-64.5C262.85,-64.5 271.75,-64.5 279.98,-64.5"/>
<polygon fill="midnightblue" stroke="midnightblue" points="279.98,-68 289.98,-64.5 279.98,-61 279.98,-68"/>
</g>
</g>
</svg>
